<svg xmlns="http://www.w3.org/2000/svg" width="800" height="800" viewBox="0 0 211.667 211.667"><path fill="none" d="M0 0h211.667v211.667H0z"/><path d="M190.153 9.547c1.812.493 4.613 1.977 6.426 3.625 3.13 2.803 9.23 13.678 9.23 16.644 0 1.154-14.833 1.648-44.33 1.648-24.39 0-46.306.658-48.447 1.482-2.308.989-6.429 4.944-9.393 9.226-6.921 10.22-10.546 12.03-24.387 13.35l-11.865 1.152v57.184h10.05c12.855 0 18.622 2.966 27.191 13.678l6.594 8.57 47.293.492c29.99.165 47.293.99 47.293 1.978 0 .99-1.647 5.11-3.46 9.23-6.26 13.017-5.933 13.017-56.357 13.017h-44.33l-8.403-9.062c-10.053-11.043-15.49-14.83-21.423-14.83h-4.45v12.195c0 10.712.33 12.196 3.297 13.018 1.813.495 4.614 3.132 6.099 5.933l2.966 5.108h33.451c29.333 0 33.451.33 34.44 2.638.494 1.482.328 3.953-.66 5.436-1.483 2.306-6.427 2.637-34.936 3.13l-33.286.33-1.485 4.286c-.988 2.306-3.79 5.107-6.59 6.096-2.802.99-4.944 3.296-5.275 5.11-.33 1.812-2.47 4.448-4.944 5.767-5.437 3.129-12.69.989-15.489-4.614-1.154-1.978-4.12-5.109-6.92-6.756-2.803-1.647-5.439-4.614-6.098-6.426-.825-2.97-2.31-3.462-10.547-3.462-10.547 0-14.335-2.471-12.525-8.239.825-2.802 2.472-3.296 11.205-3.296 9.723 0 10.381-.33 13.183-5.108 1.484-2.801 4.285-5.437 6.099-5.933 2.965-.824 3.296-2.306 3.296-13.018v-12.195h-13.68c-15.819 0-19.94-2.47-19.61-11.865.166-8.567 4.945-11.205 20.27-11.205h13.02V56.18H32.12c-18.95 0-26.366-6.098-21.587-17.633 2.472-5.93 5.933-7.084 20.927-7.084h11.205v-5.768c0-12.525 8.57-20.27 17.304-15.656 4.283 2.307 7.415 9.392 7.415 16.645 0 4.448.493 4.779 6.098 4.779 5.603 0 7.415-1.318 16.642-11.206l10.549-11.04 43.174-.33c23.565 0 44.492.165 46.306.66z" fill="#d15700"/></svg>
