<svg xmlns="http://www.w3.org/2000/svg" xmlns:xlink="http://www.w3.org/1999/xlink" xml:space="preserve" viewBox="0 0 64 64"><defs><linearGradient id="b"><stop offset="0" stop-color="#08cfff" style="stop-color:#f4ac00;stop-opacity:1"/><stop offset=".682" stop-color="#0087d0" style="stop-color:#ffcc34;stop-opacity:1"/></linearGradient><linearGradient id="a"><stop offset="0" stop-color="#0087d0" style="stop-color:#d06b00;stop-opacity:1"/><stop offset="1" stop-color="#08cfff" style="stop-color:#ffe908;stop-opacity:1"/></linearGradient><linearGradient xlink:href="#a" id="c" x1="20.068" x2="24.949" y1="55.322" y2="3.254" gradientUnits="userSpaceOnUse" spreadMethod="pad"/><linearGradient xlink:href="#b" id="d" x1="8.393" x2="49.201" y1="57.18" y2="10.354" gradientUnits="userSpaceOnUse"/></defs><path fill="url(#c)" d="M0 0h64v64H0z" style="fill:url(#d)"/><path d="M17.196 4C13.227 4 10 7.14 10 11v42c0 3.861 3.227 7 7.196 7H45.98c3.97 0 7.196-3.139 7.196-7V21.5H38.784c-1.99 0-3.598-1.564-3.598-3.5V4Zm21.588 0v14h14.392Zm-17.99 5.25c0-.962.81-1.75 1.8-1.75h3.597c.99 0 1.8.788 1.8 1.75S27.18 11 26.19 11h-3.598c-.99 0-1.799-.788-1.799-1.75zm0 7c0-.963.81-1.75 1.8-1.75h3.597c.99 0 1.8.787 1.8 1.75S27.18 18 26.19 18h-3.598c-.99 0-1.799-.788-1.799-1.75zm0 7c0-.962.81-1.75 1.8-1.75h3.597c.99 0 1.8.788 1.8 1.75 0 .963-.81 1.75-1.8 1.75h-3.598c-.99 0-1.799-.787-1.799-1.75zm-.708 7.853c.416-1.531 1.844-2.603 3.474-2.603h1.664c1.63 0 3.059 1.06 3.475 2.603l2.642 9.647c.157.59.236 1.192.236 1.794 0 3.85-3.238 6.967-7.196 6.967-3.958 0-7.196-3.117-7.196-6.967 0-.602.079-1.214.236-1.794l2.642-9.647zm2.507 9.647c-.99 0-1.799.788-1.799 1.75 0 .963.81 1.75 1.8 1.75h3.597c.99 0 1.8-.787 1.8-1.75 0-.962-.81-1.75-1.8-1.75z" style="display:inline;fill:#fff;stroke:none;stroke-width:.965517;stroke-linecap:round;stroke-linejoin:bevel;stroke-dasharray:none;stroke-opacity:1"/></svg>
